<?xml version="1.0" standalone="no"?>
<!DOCTYPE svg PUBLIC "-//W3C//DTD SVG 20010904//EN"
 "http://www.w3.org/TR/2001/REC-SVG-20010904/DTD/svg10.dtd">
<svg version="1.0" xmlns="http://www.w3.org/2000/svg"
 width="500.000000pt" height="500.000000pt" viewBox="0 0 500.000000 500.000000"
 preserveAspectRatio="xMidYMid meet">

<g transform="translate(0.000000,500.000000) scale(0.100000,-0.100000)"
fill="#000000" stroke="none">
<path d="M993 3291 c-144 -53 -248 -176 -295 -348 -30 -111 -30 -335 0 -446
55 -203 181 -327 366 -358 188 -32 382 66 463 234 49 99 68 202 67 357 0 148
-20 244 -70 343 -36 71 -135 167 -209 202 -52 25 -73 29 -165 32 -84 2 -116
-1 -157 -16z m225 -221 c78 -48 122 -176 122 -352 0 -173 -41 -292 -115 -338
-30 -19 -47 -22 -101 -18 -60 4 -68 7 -104 44 -66 65 -84 131 -84 309 -1 122
2 160 18 205 25 73 67 133 108 153 46 23 116 21 156 -3z"/>
<path d="M2117 3295 c-80 -22 -189 -79 -253 -133 -78 -64 -157 -181 -186 -275
-31 -99 -31 -245 1 -335 122 -351 537 -518 889 -357 39 19 72 36 72 40 0 4
-99 206 -104 212 -1 1 -23 -8 -49 -21 -154 -78 -363 -45 -471 75 -64 71 -89
144 -84 239 8 130 71 226 186 282 64 32 72 33 182 33 105 0 120 -2 174 -28 32
-15 60 -26 61 -25 2 2 26 50 55 107 57 115 59 107 -25 145 -114 53 -333 73
-448 41z"/>
<path d="M3813 3291 c-97 -33 -177 -104 -216 -190 -15 -34 -21 -67 -22 -126 0
-70 4 -86 30 -134 43 -77 102 -124 252 -198 136 -67 193 -113 193 -154 0 -45
-27 -86 -69 -102 -90 -36 -199 -14 -325 67 -32 21 -59 36 -60 34 -2 -2 -30
-49 -64 -106 l-62 -102 58 -37 c184 -118 427 -144 601 -63 115 54 171 128 192
258 10 57 9 78 -5 123 -31 108 -104 172 -304 269 -78 38 -153 81 -167 94 -34
34 -33 77 4 118 25 28 35 32 94 36 67 4 133 -11 209 -49 l37 -19 44 83 c64
117 64 116 -13 154 -36 18 -92 39 -125 48 -81 21 -216 19 -282 -4z"/>
<path d="M2650 3180 l0 -110 135 0 135 0 0 -460 0 -460 125 0 125 0 0 460 0
460 140 0 140 0 0 110 0 110 -400 0 -400 0 0 -110z"/>
</g>
</svg>
